<?xml version="1.0" standalone="no"?>
<!DOCTYPE svg PUBLIC "-//W3C//DTD SVG 20010904//EN"
 "http://www.w3.org/TR/2001/REC-SVG-20010904/DTD/svg10.dtd">
<svg version="1.0" xmlns="http://www.w3.org/2000/svg"
 width="357.000000pt" height="320.000000pt" viewBox="0 0 357.000000 320.000000"
 preserveAspectRatio="xMidYMid meet">

<g transform="translate(0.000000,320.000000) scale(0.100000,-0.100000)"
fill="#000000" stroke="none">
<path d="M1740 2981 c-40 -13 -84 -38 -101 -57 -16 -18 -132 -218 -819 -1409
-178 -308 -389 -672 -468 -810 -131 -226 -146 -255 -150 -307 -6 -78 24 -139
86 -179 l46 -29 1443 0 c1190 0 1449 2 1476 14 41 17 91 74 107 121 27 82 31
74 -497 989 -274 474 -595 1030 -714 1236 -198 343 -220 377 -260 402 -48 30
-110 42 -149 29z m106 -106 c11 -7 52 -69 91 -137 39 -67 244 -422 455 -788
211 -366 498 -861 636 -1101 152 -263 252 -447 252 -462 0 -37 -19 -74 -49
-94 -24 -17 -107 -18 -1411 -21 -762 -2 -1405 0 -1429 3 -62 9 -101 49 -101
105 0 33 11 61 49 124 27 44 92 158 146 251 287 499 1063 1843 1160 2010 55
94 77 120 110 128 26 7 65 -1 91 -18z"/>
<path d="M1712 2429 c-18 -6 -50 -27 -72 -49 -70 -70 -70 -53 -11 -678 29
-306 54 -567 57 -579 4 -22 9 -23 99 -23 52 0 95 3 95 8 0 4 25 263 55 576 60
625 60 616 2 683 -56 64 -139 87 -225 62z"/>
<path d="M1705 938 c-81 -29 -134 -102 -142 -198 -7 -68 12 -131 54 -181 82
-97 262 -93 338 8 96 124 51 310 -87 367 -42 18 -118 20 -163 4z"/>
</g>
</svg>
